<?xml version="1.0" encoding="UTF-8" standalone="no"?>
<!DOCTYPE svg PUBLIC "-//W3C//DTD SVG 1.1//EN" "http://www.w3.org/Graphics/SVG/1.1/DTD/svg11.dtd">
<svg xmlns="http://www.w3.org/2000/svg" xmlns:xlink="http://www.w3.org/1999/xlink" version="1.1" width="400" height="742" viewBox="0 0 400 742" xml:space="preserve">
  <desc>Created with Fabric.js 2.6.0</desc>
  <defs/>
  <g transform="matrix(1 0 0 1 265.09 337.95)">
    <path style="stroke: rgb(255,0,0); stroke-width: 10; stroke-dasharray: none; stroke-linecap: round; stroke-dashoffset: 0; stroke-linejoin: round; stroke-miterlimit: 10; fill: none; fill-rule: nonzero; opacity: 1;" transform=" translate(-265.09, -337.95)" d="M 221 326.01 Q 221 326 221 325.5 Q 221 325 221 322.5 Q 221 320 221 312.5 Q 221 305 221 287.5 Q 221 270 221 258 Q 221 246 226 232.5 Q 231 219 247.5 217 Q 264 215 283.5 217 Q 303 219 315.5 227.5 Q 328 236 339.5 245.5 Q 351 255 359.5 269 Q 368 283 368.5 296 Q 369 309 368.5 326 Q 368 343 357.5 364 Q 347 385 333 405 Q 319 425 302.5 438.5 Q 286 452 268.5 456.5 Q 251 461 230.5 459.5 Q 210 458 191.5 441 Q 173 424 167.5 409 Q 162 394 161.5 382 Q 161 370 167.5 360.5 Q 174 351 181 349.5 Q 188 348 196.5 348 Q 205 348 209 349.5 Q 213 351 216.5 353 Q 220 355 221 356 Q 222 357 222 357.5 Q 222 358 221.5 357.5 Q 221 357 219.5 352 Q 218 347 217.5 342.5 Q 217 338 217 334.5 Q 217 331 217.5 327.5 Q 218 324 220 321.5 L 222.01 318.99" stroke-linecap="round"/>
  </g>
  <g transform="matrix(1 0 0 1 259 265.5)">
    <path style="stroke: rgb(0,0,0); stroke-width: 10; stroke-dasharray: none; stroke-linecap: round; stroke-dashoffset: 0; stroke-linejoin: round; stroke-miterlimit: 10; fill: none; fill-rule: nonzero; opacity: 1;" transform=" translate(-259, -265.5)" d="M 259 257.99 Q 259 258 259 258.5 Q 259 259 259 260 Q 259 261 259 263 Q 259 265 259 266 Q 259 267 259 267.5 Q 259 268 259 268.5 Q 259 269 259 269.5 Q 259 270 259 270.5 Q 259 271 259 271.5 Q 259 272 259 272.5 L 259 273.01" stroke-linecap="round"/>
  </g>
  <g transform="matrix(1 0 0 1 301.5 287.5)">
    <path style="stroke: rgb(0,0,0); stroke-width: 10; stroke-dasharray: none; stroke-linecap: round; stroke-dashoffset: 0; stroke-linejoin: round; stroke-miterlimit: 10; fill: none; fill-rule: nonzero; opacity: 1;" transform=" translate(-301.5, -287.5)" d="M 309 274.99 Q 309 275 309 275.5 Q 309 276 309 276.5 Q 309 277 309 277.5 Q 309 278 309 278.5 Q 309 279 309 280 Q 309 281 308 282 Q 307 283 306.5 284 Q 306 285 305 286.5 Q 304 288 303 288.5 Q 302 289 302 289.5 Q 302 290 301.5 290 Q 301 290 301 290.5 Q 301 291 300 292 Q 299 293 298.5 294 Q 298 295 297 296 Q 296 297 295 298 Q 294 299 294 299.5 L 294 300.01" stroke-linecap="round"/>
  </g>
  <g transform="matrix(1 0 0 1 148.5 240.5)">
    <path style="stroke: rgb(255,255,0); stroke-width: 10; stroke-dasharray: none; stroke-linecap: round; stroke-dashoffset: 0; stroke-linejoin: round; stroke-miterlimit: 10; fill: none; fill-rule: nonzero; opacity: 1;" transform=" translate(-148.5, -240.5)" d="M 152.01 265 Q 152 265 151 265 Q 150 265 148.5 265 Q 147 265 144.5 265 Q 142 265 141 264.5 Q 140 264 139 263 Q 138 262 136.5 260.5 Q 135 259 133.5 257 Q 132 255 131.5 253 Q 131 251 130 249.5 Q 129 248 129 247 Q 129 246 128.5 245 Q 128 244 128 242.5 Q 128 241 127.5 239.5 Q 127 238 127 235.5 Q 127 233 127 232 Q 127 231 127 230 Q 127 229 127 228 Q 127 227 127 226.5 Q 127 226 127.5 225 Q 128 224 129 222.5 Q 130 221 131 220.5 Q 132 220 133 219 Q 134 218 135 217.5 Q 136 217 136.5 216.5 Q 137 216 138 215.5 Q 139 215 140.5 214.5 Q 142 214 142.5 213.5 Q 143 213 144 213 Q 145 213 146 213 Q 147 213 148 212.5 Q 149 212 150 212 Q 151 212 151.5 212 Q 152 212 153 212 Q 154 212 155 212 Q 156 212 156.5 212 Q 157 212 158 212.5 Q 159 213 160 213.5 Q 161 214 161.5 214.5 Q 162 215 162.5 215.5 Q 163 216 163.5 216 Q 164 216 164.5 216.5 Q 165 217 165.5 218 Q 166 219 166.5 219.5 Q 167 220 167 220.5 Q 167 221 167.5 221.5 Q 168 222 168 222.5 Q 168 223 168.5 224 Q 169 225 169 225.5 Q 169 226 169.5 227 Q 170 228 170 229 Q 170 230 170 231 Q 170 232 170 232.5 Q 170 233 170 234 Q 170 235 170 235.5 Q 170 236 170 237 Q 170 238 170 239 Q 170 240 170 240.5 Q 170 241 170 242 Q 170 243 169.5 244.5 Q 169 246 169 246.5 Q 169 247 168 249 Q 167 251 166.5 252 Q 166 253 165 254 Q 164 255 163.5 256 Q 163 257 162 258 Q 161 259 160.5 260 Q 160 261 159 262 Q 158 263 157 264 Q 156 265 154.5 265.5 Q 153 266 151.5 267 Q 150 268 148 268.5 Q 146 269 145.5 269 Q 145 269 144.5 269 L 143.99 269" stroke-linecap="round"/>
  </g>
  <g transform="matrix(1 0 0 1 139.5 188)">
    <path style="stroke: rgb(255,255,0); stroke-width: 10; stroke-dasharray: none; stroke-linecap: round; stroke-dashoffset: 0; stroke-linejoin: round; stroke-miterlimit: 10; fill: none; fill-rule: nonzero; opacity: 1;" transform=" translate(-139.5, -188)" d="M 141 212.01 Q 141 212 141 210 Q 141 208 141 205.5 Q 141 203 141 202 Q 141 201 141 198.5 Q 141 196 141 194 Q 141 192 141 190 Q 141 188 141 185.5 Q 141 183 141 181 Q 141 179 141 178 Q 141 177 141 176 Q 141 175 141 174.5 Q 141 174 141 173 Q 141 172 140.5 171.5 Q 140 171 140 170 Q 140 169 139.5 168 Q 139 167 138.5 166 Q 138 165 138 164.5 L 138 163.99" stroke-linecap="round"/>
  </g>
  <g transform="matrix(1 0 0 1 138 177)">
    <path style="stroke: rgb(255,255,0); stroke-width: 10; stroke-dasharray: none; stroke-linecap: round; stroke-dashoffset: 0; stroke-linejoin: round; stroke-miterlimit: 10; fill: none; fill-rule: nonzero; opacity: 1;" transform=" translate(-138, -177)" d="M 124.99 182 Q 125 182 125.5 182 Q 126 182 126.5 182 Q 127 182 129 181.5 Q 131 181 131.5 180.5 Q 132 180 133.5 179 Q 135 178 136.5 178 Q 138 178 139 177.5 Q 140 177 141 176.5 Q 142 176 143.5 175.5 Q 145 175 146 174.5 Q 147 174 148 173.5 Q 149 173 149.5 173 Q 150 173 150.5 173 Q 151 173 151 172.5 L 151 171.99" stroke-linecap="round"/>
  </g>
  <g transform="matrix(1 0 0 1 188.5 269.5)">
    <path style="stroke: rgb(191,64,64); stroke-width: 10; stroke-dasharray: none; stroke-linecap: round; stroke-dashoffset: 0; stroke-linejoin: round; stroke-miterlimit: 10; fill: none; fill-rule: nonzero; opacity: 1;" transform=" translate(-188.5, -269.5)" d="M 212 288.01 Q 212 288 212 287.5 Q 212 287 212 286.5 Q 212 286 212 285 Q 212 284 211.5 283 Q 211 282 210 281 Q 209 280 208.5 279.5 Q 208 279 207 278.5 Q 206 278 205 277.5 Q 204 277 203 276 Q 202 275 200.5 274.5 Q 199 274 198 273 Q 197 272 195.5 271 Q 194 270 192 269 Q 190 268 188.5 267 Q 187 266 185 264.5 Q 183 263 181.5 262 Q 180 261 178.5 260 Q 177 259 175.5 258 Q 174 257 172.5 256 Q 171 255 169.5 254 Q 168 253 167.5 252.5 Q 167 252 166.5 251.5 Q 166 251 165.5 251 L 164.99 251" stroke-linecap="round"/>
  </g>
  <g transform="matrix(1 0 0 1 290.5 178.94)">
    <path style="stroke: none; stroke-width: 10; stroke-dasharray: none; stroke-linecap: round; stroke-dashoffset: 0; stroke-linejoin: round; stroke-miterlimit: 10; fill: none; fill-rule: nonzero; opacity: 1;" transform=" translate(-290.5, -178.94)" d="M 257 198.99 Q 257 199 257 199.5 Q 257 200 257 199.5 Q 257 199 257 198 Q 257 197 257 194 Q 257 191 257.5 188.5 Q 258 186 259 184.5 Q 260 183 261.5 181 Q 263 179 264 177.5 Q 265 176 266 174.5 Q 267 173 269 171.5 Q 271 170 272.5 169 Q 274 168 276.5 166 Q 279 164 280.5 163.5 Q 282 163 283 162 Q 284 161 285.5 160.5 Q 287 160 288 159.5 Q 289 159 290 159 Q 291 159 292 158.5 Q 293 158 294 158 Q 295 158 296 158 Q 297 158 297.5 158 Q 298 158 299 158 Q 300 158 301 158 Q 302 158 303 158 Q 304 158 305 158 Q 306 158 307 158 Q 308 158 308.5 158.5 Q 309 159 309.5 159 Q 310 159 310.5 159.5 Q 311 160 311.5 160 Q 312 160 313 160.5 Q 314 161 314.5 161 Q 315 161 315.5 161.5 Q 316 162 316.5 162 Q 317 162 318 162.5 Q 319 163 319.5 163.5 Q 320 164 320.5 164 Q 321 164 321.5 164.5 Q 322 165 322.5 165 Q 323 165 323 165.5 Q 323 166 323.5 166 L 324.01 166" stroke-linecap="round"/>
  </g>
  <g transform="matrix(1 0 0 1 305 194.5)">
    <path style="stroke: rgb(51,204,51); stroke-width: 10; stroke-dasharray: none; stroke-linecap: round; stroke-dashoffset: 0; stroke-linejoin: round; stroke-miterlimit: 10; fill: none; fill-rule: nonzero; opacity: 1;" transform=" translate(-305, -194.5)" d="M 256 200.01 Q 256 200 256 199.5 Q 256 199 256 197 Q 256 195 256 194 Q 256 193 256 191.5 Q 256 190 257 189.5 Q 258 189 258.5 188 Q 259 187 259.5 187 Q 260 187 261 186.5 Q 262 186 263.5 185.5 Q 265 185 267 184 Q 269 183 271 182.5 Q 273 182 275 181 Q 277 180 279 179.5 Q 281 179 283.5 178 Q 286 177 288.5 176.5 Q 291 176 293 175.5 Q 295 175 297.5 175 Q 300 175 302.5 174.5 Q 305 174 307 174 Q 309 174 311.5 174 Q 314 174 315.5 174 Q 317 174 318.5 174 Q 320 174 321.5 174 Q 323 174 324 174 Q 325 174 325.5 174 Q 326 174 327.5 174 Q 329 174 330 174.5 Q 331 175 331.5 175.5 Q 332 176 333 176.5 Q 334 177 334.5 177.5 Q 335 178 336.5 179 Q 338 180 339 181 Q 340 182 341 183 Q 342 184 342.5 184.5 Q 343 185 344 185.5 Q 345 186 345.5 187 Q 346 188 346.5 188.5 Q 347 189 347.5 190 Q 348 191 348.5 191.5 Q 349 192 349 192.5 Q 349 193 349.5 193.5 Q 350 194 350.5 194.5 Q 351 195 351 195.5 Q 351 196 351.5 197 Q 352 198 352.5 198.5 Q 353 199 353 199.5 Q 353 200 353 201 Q 353 202 353 202.5 Q 353 203 353 204 Q 353 205 353 206.5 Q 353 208 353 209 Q 353 210 353 211 Q 353 212 353 212.5 Q 353 213 353 214 Q 353 215 353 215.5 Q 353 216 353 216.5 Q 353 217 353 217.5 Q 353 218 353 218.5 Q 353 219 353 219.5 Q 353 220 353 220.5 Q 353 221 353 222 Q 353 223 353 223.5 Q 353 224 353 224.5 Q 353 225 352.5 225 Q 352 225 352 225.5 Q 352 226 351.5 226 Q 351 226 351 225.5 Q 351 225 351 224.5 Q 351 224 351 223.5 Q 351 223 351 222.5 Q 351 222 351 221 Q 351 220 351 218.5 Q 351 217 351 214.5 Q 351 212 351 209.5 Q 351 207 351 205 Q 351 203 351 200.5 Q 351 198 351 196.5 Q 351 195 351 193.5 Q 351 192 351 191 Q 351 190 350.5 189 Q 350 188 350 186.5 Q 350 185 349.5 184.5 Q 349 184 349 183 Q 349 182 348.5 181 Q 348 180 348 179.5 Q 348 179 347.5 178.5 Q 347 178 346.5 177.5 Q 346 177 345.5 176.5 Q 345 176 344.5 175.5 Q 344 175 343.5 174.5 Q 343 174 342.5 174 Q 342 174 341.5 173.5 Q 341 173 340 172.5 Q 339 172 338.5 172 Q 338 172 337.5 171.5 Q 337 171 336 171 Q 335 171 334.5 171 Q 334 171 333 171 Q 332 171 331 170.5 Q 330 170 329 170 Q 328 170 327 170 Q 326 170 325 170 Q 324 170 323 170 Q 322 170 321 170 Q 320 170 319 170 Q 318 170 317 170 Q 316 170 315.5 170 Q 315 170 314.5 170 Q 314 170 313 170 Q 312 170 311.5 170 Q 311 170 310 170 Q 309 170 308.5 170 Q 308 170 306.5 170 Q 305 170 304.5 170.5 Q 304 171 303 171 Q 302 171 301.5 171.5 Q 301 172 300 172 Q 299 172 298 172.5 Q 297 173 296 173 Q 295 173 294.5 173.5 Q 294 174 293 174.5 Q 292 175 291 175 Q 290 175 289 176 Q 288 177 287 177 Q 286 177 285.5 178 Q 285 179 284 179 Q 283 179 282.5 179.5 Q 282 180 281.5 180.5 Q 281 181 280.5 181.5 Q 280 182 280 182.5 Q 280 183 279.5 183.5 Q 279 184 278.5 184 Q 278 184 277.5 185 Q 277 186 277 186.5 Q 277 187 276.5 187 Q 276 187 276 187.5 Q 276 188 275.5 188 Q 275 188 275 188.5 Q 275 189 275 189.5 Q 275 190 274.5 190 Q 274 190 274 190.5 Q 274 191 273.5 191.5 Q 273 192 272.5 192.5 Q 272 193 271 193.5 Q 270 194 269.5 194 Q 269 194 268.5 194 Q 268 194 268 193.5 Q 268 193 268 192.5 Q 268 192 268 191.5 Q 268 191 268 190.5 Q 268 190 268 189.5 Q 268 189 268 188.5 Q 268 188 268 187 Q 268 186 268 185.5 Q 268 185 268.5 184.5 Q 269 184 269.5 182.5 Q 270 181 271 180.5 Q 272 180 273.5 178.5 Q 275 177 277.5 175.5 Q 280 174 281.5 173 Q 283 172 284.5 171 Q 286 170 288 169 Q 290 168 291.5 167.5 Q 293 167 294.5 166 Q 296 165 297.5 165 Q 299 165 300 164.5 Q 301 164 303 164 Q 305 164 306.5 164 Q 308 164 310 163.5 Q 312 163 313.5 163 Q 315 163 316.5 163 Q 318 163 319 163 Q 320 163 321 163.5 Q 322 164 322.5 164 Q 323 164 324 165 Q 325 166 326.5 167 Q 328 168 329.5 169 Q 331 170 332.5 171 Q 334 172 335.5 172.5 Q 337 173 338 174 Q 339 175 339.5 175.5 Q 340 176 340.5 176.5 Q 341 177 342 178 Q 343 179 343.5 179.5 Q 344 180 344 180.5 Q 344 181 344.5 181.5 Q 345 182 345.5 182.5 Q 346 183 346 184 Q 346 185 346.5 185.5 Q 347 186 347.5 187 Q 348 188 348.5 189 Q 349 190 349 191.5 Q 349 193 350 194.5 Q 351 196 351 196.5 Q 351 197 351.5 198 Q 352 199 352 200 Q 352 201 352 201.5 Q 352 202 352 202.5 Q 352 203 352.5 203.5 Q 353 204 353 204.5 Q 353 205 353 206 Q 353 207 353 207.5 Q 353 208 353.5 208.5 Q 354 209 354 209.5 Q 354 210 354 210.5 Q 354 211 354 211.5 Q 354 212 354 212.5 Q 354 213 354 213.5 Q 354 214 354 214.5 Q 354 215 353.5 215.5 Q 353 216 353 216.5 Q 353 217 353 217.5 L 353 218.01" stroke-linecap="round"/>
  </g>
  <g transform="matrix(1 0 0 1 305 214.5)">
    <path style="stroke: rgb(51,204,51); stroke-width: 10; stroke-dasharray: none; stroke-linecap: round; stroke-dashoffset: 0; stroke-linejoin: round; stroke-miterlimit: 10; fill: none; fill-rule: nonzero; opacity: 1;" transform=" translate(-305, -214.5)" d="M 248 193.99 Q 248 194 248 194.5 Q 248 195 248 196 Q 248 197 248 198 Q 248 199 248 200 Q 248 201 248 201.5 Q 248 202 248 202.5 Q 248 203 248 203.5 Q 248 204 248.5 204.5 Q 249 205 249.5 205.5 Q 250 206 250 206.5 Q 250 207 250.5 207 Q 251 207 251 207.5 Q 251 208 252 208.5 Q 253 209 253.5 209.5 Q 254 210 254.5 211 Q 255 212 256 212.5 Q 257 213 257.5 213.5 Q 258 214 259 215 Q 260 216 261 216.5 Q 262 217 263 218 Q 264 219 265 219.5 Q 266 220 267 220.5 Q 268 221 268.5 221.5 Q 269 222 270 222.5 Q 271 223 271.5 223.5 Q 272 224 274 224.5 Q 276 225 277 225.5 Q 278 226 279 226.5 Q 280 227 281.5 227.5 Q 283 228 284 228 Q 285 228 286 228.5 Q 287 229 288 229 Q 289 229 290.5 229.5 Q 292 230 293 230.5 Q 294 231 295 231 Q 296 231 297 231 Q 298 231 299 231.5 Q 300 232 300.5 232 Q 301 232 302 232.5 Q 303 233 303.5 233 Q 304 233 304.5 233 Q 305 233 306 233 Q 307 233 307.5 233.5 Q 308 234 309 234 Q 310 234 311 234 Q 312 234 313 234 Q 314 234 315 234 Q 316 234 317 234.5 Q 318 235 319 235 Q 320 235 321 235 Q 322 235 323.5 235 Q 325 235 326 235 Q 327 235 328 235 Q 329 235 330 235 Q 331 235 332 235 Q 333 235 334 235 Q 335 235 336 235 Q 337 235 338 235 Q 339 235 339.5 235 Q 340 235 341 235 Q 342 235 342.5 235 Q 343 235 344 235 Q 345 235 345.5 235 Q 346 235 347 235 Q 348 235 348.5 235 Q 349 235 349.5 235 Q 350 235 350.5 235 Q 351 235 351.5 235 Q 352 235 353 235 Q 354 235 354.5 235 Q 355 235 356 235 Q 357 235 357.5 235 Q 358 235 358.5 235 Q 359 235 359.5 234.5 Q 360 234 360.5 234 Q 361 234 361 233.5 Q 361 233 361.5 233 Q 362 233 362 232.5 Q 362 232 362 231.5 Q 362 231 362 230 Q 362 229 362 228.5 Q 362 228 362 227.5 Q 362 227 362 226.5 Q 362 226 361.5 225.5 Q 361 225 360.5 224.5 Q 360 224 360 223.5 Q 360 223 360 222.5 Q 360 222 360 221 Q 360 220 360 219.5 L 360 218.99" stroke-linecap="round"/>
  </g>
  <g transform="matrix(1 0 0 1 272 318)">
    <path style="stroke: none; stroke-width: 10; stroke-dasharray: none; stroke-linecap: round; stroke-dashoffset: 0; stroke-linejoin: round; stroke-miterlimit: 10; fill: none; fill-rule: nonzero; opacity: 1;" transform=" translate(-272, -318)" d="M 247 305.99 Q 247 306 247 306.5 Q 247 307 247 308.5 Q 247 310 247.5 310.5 Q 248 311 248.5 312 Q 249 313 249.5 314 Q 250 315 250.5 315.5 Q 251 316 252 317 Q 253 318 254 319 Q 255 320 255.5 320.5 Q 256 321 257 321.5 Q 258 322 259 322.5 Q 260 323 261 324 Q 262 325 263.5 326 Q 265 327 266 327.5 Q 267 328 268.5 328.5 Q 270 329 271 329.5 Q 272 330 273 330 Q 274 330 275.5 330 Q 277 330 279 330 Q 281 330 282 330 Q 283 330 285 330 Q 287 330 288 329.5 Q 289 329 289.5 329 Q 290 329 291 328.5 Q 292 328 293 328 Q 294 328 294.5 327.5 Q 295 327 295.5 327 Q 296 327 296.5 326.5 L 297.01 325.99" stroke-linecap="round"/>
  </g>
  <g transform="matrix(1 0 0 1 260.5 320)">
    <path style="stroke: rgb(0,0,0); stroke-width: 10; stroke-dasharray: none; stroke-linecap: round; stroke-dashoffset: 0; stroke-linejoin: round; stroke-miterlimit: 10; fill: none; fill-rule: nonzero; opacity: 1;" transform=" translate(-260.5, -320)" d="M 242 301.99 Q 242 302 242 302.5 Q 242 303 242 304.5 Q 242 306 242.5 306.5 Q 243 307 244 307.5 Q 245 308 245.5 308.5 Q 246 309 246.5 309.5 Q 247 310 248.5 310 Q 250 310 251.5 310.5 Q 253 311 255 311.5 Q 257 312 258.5 312.5 Q 260 313 262 313 Q 264 313 266 313 Q 268 313 269.5 313 Q 271 313 272.5 313 Q 274 313 275.5 313 Q 277 313 278.5 313 Q 280 313 281.5 313 Q 283 313 284 313 Q 285 313 285.5 313 Q 286 313 286.5 313 Q 287 313 287.5 313 Q 288 313 288 313.5 Q 288 314 287.5 314.5 Q 287 315 287 317 Q 287 319 286.5 321 Q 286 323 285.5 325.5 Q 285 328 284.5 330 Q 284 332 283.5 333.5 Q 283 335 283 336.5 Q 283 338 282.5 339 Q 282 340 281.5 341 Q 281 342 281 342.5 Q 281 343 280.5 343 Q 280 343 280 342.5 Q 280 342 279.5 342 Q 279 342 278.5 342 Q 278 342 277.5 342 Q 277 342 276.5 342 Q 276 342 275.5 341.5 Q 275 341 273.5 340.5 Q 272 340 270.5 340 Q 269 340 268 339.5 Q 267 339 266 339 Q 265 339 264.5 338.5 Q 264 338 263 338 Q 262 338 261.5 337.5 Q 261 337 259.5 336.5 Q 258 336 257 335.5 Q 256 335 255.5 335 Q 255 335 254 334.5 Q 253 334 252 333.5 Q 251 333 249.5 332 Q 248 331 246.5 329.5 Q 245 328 244 326.5 Q 243 325 242 323.5 Q 241 322 240 321 Q 239 320 238.5 318 Q 238 316 237.5 314.5 Q 237 313 236.5 311.5 Q 236 310 235.5 308.5 Q 235 307 234.5 306 Q 234 305 234 303.5 Q 234 302 234 301.5 Q 234 301 234 300 Q 234 299 233.5 298.5 Q 233 298 233 297.5 L 233 296.99" stroke-linecap="round"/>
  </g>
</svg>